<svg version="1.2" xmlns="http://www.w3.org/2000/svg" viewBox="0 0 800 800" width="800" height="800">
	<style>
		.s0 { fill: #1da1f2 } 
		.s1 { fill: #ffffff } 
	</style>
	<path fill-rule="evenodd" class="s0" d="m400 800c-221.2 0-400-178.8-400-400 0-221.2 178.8-400 400-400 221.2 0 400 178.8 400 400 0 221.2-178.8 400-400 400z"/>
	<path fill-rule="evenodd" class="s1" d="m640 246.17c-17.65 7.84-36.64 13.12-56.56 15.51 20.34-12.2 35.95-31.49 43.3-54.48-19.01 11.29-40.11 19.47-62.53 23.9-17.96-19.13-43.58-31.1-71.88-31.1-54.38 0-98.47 44.09-98.47 98.47 0 7.71 0.88 15.23 2.56 22.45-81.85-4.1-154.41-43.31-202.98-102.89-8.48 14.54-13.33 31.45-13.33 49.5 0 34.16 17.36 64.3 43.81 81.96-16.16-0.51-31.33-4.94-44.63-12.32v1.24c0 47.72 33.97 87.51 78.99 96.58-8.25 2.24-16.96 3.46-25.93 3.46-6.35 0-12.53-0.63-18.55-1.78 12.53 39.12 48.91 67.6 92 68.4-33.7 26.4-76.16 42.15-122.3 42.15q-11.95 0-23.5-1.39c43.58 27.94 95.34 44.26 150.95 44.26 181.12 0 280.17-150.06 280.17-280.18q0.02-6.41-0.28-12.73c19.26-13.92 35.96-31.26 49.16-51.01z"/>
</svg>